<?xml version="1.0" standalone="no"?>
<!DOCTYPE svg PUBLIC "-//W3C//DTD SVG 20010904//EN"
 "http://www.w3.org/TR/2001/REC-SVG-20010904/DTD/svg10.dtd">
<svg version="1.0" xmlns="http://www.w3.org/2000/svg"
 width="16.000000pt" height="16.000000pt" viewBox="0 0 16.000000 16.000000"
 preserveAspectRatio="xMidYMid meet">
<metadata>
Created by potrace 1.11, written by Peter Selinger 2001-2013
</metadata>
<g transform="translate(0.000000,16.000000) scale(0.004748,-0.004748)"
fill="#000000" stroke="none">
<path d="M0 2820 l0 -550 45 0 c25 0 45 -4 45 -9 0 -5 -20 -8 -45 -6 -38 2
-45 0 -45 -16 0 -16 7 -19 40 -17 22 1 43 -2 47 -6 12 -11 -19 -26 -54 -26
-18 0 -33 -4 -33 -10 0 -5 10 -10 23 -10 13 0 28 -5 34 -11 8 -8 17 -7 33 4
12 9 29 13 36 10 8 -3 14 0 14 6 0 6 -5 11 -11 11 -8 0 -8 5 1 15 7 8 21 15
31 15 24 0 25 -30 2 -30 -17 -1 -17 -1 0 -14 12 -9 17 -27 17 -58 0 -77 10
-108 34 -108 20 0 21 4 20 101 0 55 3 102 8 105 4 3 8 -1 8 -8 0 -13 80 -102
86 -95 2 2 -5 27 -16 57 -22 59 -20 75 4 38 26 -40 47 -124 44 -180 l-3 -53
-92 -3 c-51 -1 -93 -7 -93 -11 0 -11 86 -21 160 -20 30 0 60 0 65 -2 6 -1 27
6 48 15 47 21 58 14 82 -52 20 -54 72 -161 87 -179 6 -7 15 -10 20 -7 5 3 0
13 -11 21 -12 8 -21 21 -21 30 0 12 7 14 31 9 17 -3 83 -6 145 -6 69 0 114 -4
114 -10 0 -6 -34 -10 -82 -10 -101 0 -160 -9 -155 -23 2 -6 19 -11 38 -12 19
0 50 -2 69 -3 58 -4 12 -21 -62 -23 l-65 -2 31 -61 c17 -34 37 -68 44 -76 32
-38 187 -258 218 -312 6 -11 21 -26 33 -34 11 -8 21 -21 21 -29 0 -8 9 -19 21
-25 27 -15 19 -33 -17 -41 l-29 -7 32 -1 c17 0 44 -6 60 -12 37 -14 14 -29
-47 -29 -33 0 -41 -3 -30 -10 8 -5 39 -10 68 -10 39 0 52 -4 52 -15 0 -11 -13
-15 -52 -16 -29 0 -62 -4 -73 -8 -16 -7 -14 -9 14 -14 19 -4 51 -7 72 -7 22 0
39 -4 39 -9 0 -12 -37 -21 -92 -21 -50 0 -68 -19 -20 -22 15 0 32 -2 37 -3 6
-2 25 -3 43 -4 59 -2 24 -21 -39 -21 -56 0 -59 -1 -59 -25 0 -14 -4 -25 -8
-25 -5 0 -6 -38 -4 -84 5 -101 -5 -113 -55 -65 l-36 34 27 -37 c15 -20 25 -41
22 -47 -5 -7 -132 -51 -150 -51 -8 0 -92 158 -115 217 -11 29 -30 106 -41 172
-24 142 -41 195 -35 111 2 -30 7 -64 11 -74 7 -17 4 -19 -27 -13 -64 13 -131
117 -171 267 -14 53 -25 77 -31 71 -7 -7 -6 -16 3 -26 19 -22 -3 -36 -50 -33
-28 3 -35 7 -33 23 3 25 -26 126 -41 142 -12 13 -66 6 -66 -8 0 -5 9 -9 20 -9
32 0 23 -28 -12 -35 l-32 -7 35 -18 c35 -19 36 -18 -17 -35 -9 -3 -32 -3 -50
1 -30 6 -34 10 -34 38 0 17 7 42 16 54 9 13 13 26 10 29 -8 8 -36 -17 -36 -32
0 -7 -7 -18 -15 -25 -9 -7 -14 -18 -12 -24 7 -18 -12 -46 -27 -40 -11 4 -14
-14 -15 -90 l-2 -96 29 0 c16 0 35 -7 42 -15 11 -13 7 -15 -29 -15 -26 0 -41
-5 -41 -12 0 -9 21 -14 63 -16 34 -1 80 -3 102 -5 31 -1 39 1 36 13 -4 13 -7
34 -12 80 -1 8 -1 22 -1 32 2 18 83 61 108 56 31 -6 53 -120 30 -157 -5 -8 -4
-16 4 -21 7 -4 9 -16 6 -28 -4 -11 -2 -23 3 -27 6 -3 11 -16 11 -28 0 -29 6
-68 13 -87 12 -33 20 -77 22 -119 1 -25 7 -47 13 -49 7 -2 10 -13 6 -28 -4
-15 -2 -24 5 -24 6 0 11 -9 11 -20 0 -17 -7 -20 -46 -20 -63 0 -81 12 -89 62
-4 24 -11 48 -15 53 -4 6 -10 24 -14 40 -4 17 -9 41 -12 55 -3 14 -6 35 -6 48
0 12 -6 22 -13 22 -14 0 -26 -68 -13 -76 4 -3 8 -15 8 -28 0 -12 5 -27 11 -33
19 -19 -3 -21 -95 -12 -91 9 -122 18 -70 20 16 1 36 2 44 3 8 2 28 3 44 4 50
3 25 9 -66 17 l-88 7 0 -45 0 -44 53 -8 c50 -7 51 -8 22 -16 -16 -5 -40 -7
-53 -4 -21 5 -23 2 -20 -22 4 -32 12 -34 203 -53 73 -7 126 -18 136 -26 8 -8
31 -14 51 -14 27 0 45 10 86 48 29 27 52 54 52 60 0 6 11 19 25 28 20 13 23
19 14 31 -7 7 -9 17 -5 20 11 11 60 10 68 -2 15 -20 8 -33 -14 -29 -21 4 -21
4 -3 -5 11 -4 23 -7 28 -4 4 2 11 -7 16 -20 5 -13 23 -47 40 -74 17 -28 31
-57 31 -65 0 -8 -16 -22 -35 -31 -19 -9 -35 -21 -35 -27 0 -21 39 -147 59
-190 24 -52 26 -76 8 -83 -8 -3 -5 -8 8 -13 21 -9 -129 -32 -212 -33 -62 -1
-53 -18 15 -27 l57 -7 -38 -13 c-44 -15 -275 -32 -309 -23 -55 15 -148 29
-196 29 l-52 0 0 -95 0 -95 1685 0 1685 0 0 210 c0 203 -1 210 -20 210 -11 0
-20 7 -20 15 0 9 -9 15 -25 15 -14 0 -25 -4 -25 -10 0 -5 7 -10 15 -10 8 0 15
-4 15 -10 0 -5 -13 -10 -30 -10 -16 0 -30 5 -30 10 0 6 5 10 11 10 6 0 8 7 5
17 -4 10 3 26 20 45 15 15 25 30 22 33 -6 7 -79 -19 -110 -39 -13 -8 -49 -24
-80 -36 -32 -12 -58 -25 -58 -30 0 -4 -18 -11 -40 -15 -22 -4 -43 -11 -46 -16
-6 -11 -46 -28 -78 -35 -18 -3 -19 2 -13 89 4 80 19 139 37 157 14 14 81 133
76 137 -2 2 -18 -20 -37 -49 -49 -78 -165 -221 -231 -285 -15 -14 -30 -34 -33
-44 -4 -12 -16 -19 -31 -19 -21 0 -24 -3 -18 -25 4 -15 2 -25 -5 -25 -6 0 -11
9 -11 20 0 11 -4 20 -9 20 -5 0 -8 -7 -7 -16 1 -21 -11 -23 -174 -26 l-134 -3
-7 35 c-4 19 -4 51 1 70 5 19 15 58 22 87 7 28 16 55 21 59 4 4 7 18 7 30 0
13 5 26 10 29 5 3 10 15 10 25 0 11 6 39 14 62 7 24 25 82 40 129 14 47 44
128 66 179 38 89 49 130 19 72 -44 -86 -268 -342 -299 -342 -14 0 -13 23 2 38
7 7 13 18 13 25 0 15 31 116 56 182 10 28 23 70 29 95 6 25 12 52 15 60 4 14
41 189 49 235 6 32 34 127 45 158 16 40 2 33 -15 -9 -23 -55 -65 -114 -81
-114 -8 0 -13 -6 -11 -12 3 -20 -31 -78 -46 -78 -7 0 -16 -12 -19 -27 -6 -28
-199 -268 -268 -333 -179 -169 -339 -240 -396 -177 -12 12 -23 43 -27 71 -3
27 -13 57 -21 66 -8 9 -15 20 -15 24 0 5 -17 29 -37 55 -45 54 -63 85 -63 105
0 17 27 22 215 36 143 11 198 23 234 51 30 24 24 24 -36 -2 -35 -15 -86 -23
-184 -31 -160 -11 -222 -4 -227 29 -6 40 19 103 54 138 l35 35 -27 25 c-31 29
-60 31 -111 10 -19 -8 -43 -15 -53 -15 -22 0 -89 51 -90 68 0 7 -7 24 -16 37
-12 19 -19 66 -25 188 -11 207 -26 297 -51 297 -5 0 -8 -6 -5 -12 2 -7 0 -21
-5 -30 -6 -13 -5 -18 7 -18 8 0 15 -9 15 -20 0 -14 -6 -20 -17 -18 -11 2 -18
-3 -18 -12 0 -9 7 -14 18 -12 10 2 17 -3 17 -13 0 -10 -10 -15 -34 -15 -18 0
-39 -7 -46 -15 -11 -13 -7 -15 26 -16 22 -1 45 -1 53 0 7 2 10 -2 6 -8 -8 -14
-235 -15 -235 -1 0 8 74 16 103 11 5 -1 7 4 5 11 -3 7 -16 14 -29 15 -44 4
-354 3 -376 -1 -28 -6 -54 31 -32 45 11 7 10 9 -3 9 -11 0 -20 11 -24 27 -4
15 -14 34 -21 42 -28 27 3 34 136 29 72 -3 131 -1 131 3 0 16 -52 21 -171 17
-116 -4 -119 -4 -119 17 0 21 4 21 85 17 59 -2 85 0 85 8 0 6 -4 9 -8 6 -4 -2
-9 3 -10 12 -14 132 -13 136 35 145 30 6 33 4 33 -19 0 -29 24 -80 53 -111
l20 -23 -24 -9 c-22 -9 -21 -10 12 -10 54 -1 129 11 124 19 -3 4 5 20 16 35
12 14 24 46 27 71 l5 44 32 -35 c19 -19 36 -48 40 -65 4 -16 13 -30 20 -30 18
0 28 30 14 46 -6 7 -8 18 -4 24 4 6 1 18 -6 26 -8 10 -9 18 -2 25 6 6 -11 31
-51 73 l-61 63 -110 6 c-60 3 -128 12 -150 20 l-40 16 95 0 c52 1 101 5 109
10 9 6 -58 9 -173 9 -172 0 -186 -1 -181 -17 7 -23 -32 -44 -71 -39 -23 2 -29
8 -29 28 0 14 -4 31 -9 38 -10 17 1 29 34 35 21 4 20 4 -7 6 l-33 1 0 83 c0
45 -3 92 -6 105 -5 17 -2 22 12 22 17 0 17 1 -1 14 -11 8 -16 19 -12 30 5 13
25 16 119 18 l113 2 -115 5 c-99 5 -115 8 -118 24 -3 14 4 17 38 17 25 0 39 4
35 10 -3 6 -18 10 -33 10 -30 0 -59 15 -45 23 4 3 71 7 148 9 119 2 140 1 140
-12 0 -15 -4 -16 -45 -19 -11 0 -20 -6 -20 -12 0 -6 14 -9 32 -7 30 3 33 1 38
-32 4 -20 10 -41 14 -48 4 -7 2 -12 -6 -12 -9 -1 -7 -5 5 -14 9 -7 17 -18 17
-24 0 -6 -8 -16 -17 -21 -16 -9 -16 -10 5 -11 17 0 24 -7 28 -30 4 -16 13 -35
20 -41 8 -6 14 -20 14 -30 0 -11 4 -19 9 -19 5 0 11 -9 14 -19 4 -17 -1 -20
-42 -24 -29 -2 -16 -4 34 -5 68 -1 77 1 63 12 -10 7 -18 18 -18 23 0 6 -10 23
-21 38 -17 21 -19 29 -9 35 9 6 7 11 -9 19 -22 12 -29 41 -10 41 5 0 7 5 4 10
-4 6 -11 8 -16 5 -15 -10 -23 26 -8 36 12 8 10 12 -6 25 -19 14 -19 16 -2 28
21 16 22 26 2 26 -8 0 -15 7 -15 15 0 8 9 15 20 15 11 0 20 5 20 10 0 6 -7 10
-15 10 -8 0 -15 8 -15 18 0 16 9 19 58 22 31 2 69 2 85 2 15 -1 27 3 27 7 0 5
-32 9 -71 9 -38 -1 -75 4 -81 10 -16 16 2 21 87 24 84 4 89 21 8 26 -88 6 -90
22 -2 22 84 0 110 10 90 33 -8 11 -9 16 -1 19 6 2 17 30 23 63 16 79 39 85 98
24 22 -23 42 -39 45 -36 8 8 -6 47 -17 47 -13 0 -11 44 3 58 7 7 26 12 43 12
31 0 32 -2 63 -92 27 -83 44 -157 55 -253 2 -16 5 17 5 75 2 86 -9 180 -30
270 -3 14 46 32 154 55 62 13 80 14 96 4 16 -10 32 -10 79 1 32 8 66 13 76 12
18 -2 47 -25 47 -36 0 -3 15 -26 33 -50 48 -62 70 -134 57 -188 -5 -24 -9 -47
-9 -53 0 -14 31 54 39 85 l7 25 11 -28 c7 -16 13 -70 13 -120 l2 -92 9 80 c10
87 5 205 -10 231 -6 10 -4 40 6 83 8 36 15 75 16 85 2 17 12 20 72 23 47 3 78
0 97 -10 14 -8 24 -16 21 -19 -3 -4 3 -5 13 -5 14 2 18 -5 18 -30 0 -28 6 -35
60 -63 80 -42 87 -50 42 -50 -36 0 -55 -20 -19 -20 16 -1 16 -1 -1 -14 -16
-13 -16 -15 13 -24 35 -13 40 -41 10 -60 -28 -17 -25 -32 7 -32 21 0 24 -3 15
-12 -18 -18 -15 -28 8 -28 26 0 25 -8 -2 -37 -19 -20 -19 -23 -4 -23 12 0 16
-7 14 -27 -2 -20 2 -28 16 -31 28 -6 47 -28 40 -46 -5 -12 1 -16 25 -16 33 0
71 -32 71 -60 0 -9 8 -25 19 -34 11 -10 21 -37 25 -69 4 -29 16 -97 28 -152
20 -91 28 -221 20 -325 -3 -45 -2 -80 3 -80 14 0 75 44 75 55 0 7 19 22 43 34
70 34 137 166 124 247 -3 18 -1 49 4 68 8 28 6 41 -8 63 -27 43 -51 63 -67 57
-9 -3 -16 -1 -16 5 0 6 7 11 16 11 9 0 23 8 30 18 10 14 15 15 25 5 7 -7 21
-13 31 -13 14 0 18 8 18 35 0 30 -5 39 -36 57 -22 13 -33 26 -30 35 4 11 1 11
-15 3 -15 -8 -24 -8 -34 0 -20 16 -2 48 30 56 97 24 190 -213 143 -363 -9 -26
-18 -61 -22 -78 -5 -27 -5 -28 6 -7 14 28 20 28 41 -5 l18 -28 -5 27 c-3 14
-9 34 -12 45 -8 27 46 -37 103 -120 157 -232 231 -326 407 -522 l45 -50 1 888
0 887 -1685 0 -1685 0 0 -550z m1744 271 c-6 -6 -24 19 -24 34 1 6 7 1 15 -9
8 -11 12 -22 9 -25z m36 -74 c0 -18 -2 -19 -10 -7 -13 20 -13 43 0 35 6 -3 10
-16 10 -28z m-1110 -136 c0 -6 -4 -13 -10 -16 -5 -3 -10 1 -10 9 0 9 5 16 10
16 6 0 10 -4 10 -9z m-230 -62 c0 -5 -13 -9 -30 -9 -28 0 -38 9 -25 22 8 8 55
-3 55 -13z m225 6 c0 -6 -44 -11 -107 -13 -66 -2 -108 1 -108 7 0 5 19 12 43
14 74 7 172 2 172 -8z m1940 -232 c-4 -21 -18 -71 -31 -112 -26 -80 -31 -127
-12 -133 6 -2 12 -14 13 -26 1 -12 9 -30 19 -41 21 -23 25 -13 -40 -101 l-26
-35 5 195 c4 178 7 199 28 243 29 59 55 65 44 10z m45 -43 c0 -5 -4 -10 -10
-10 -5 0 -10 5 -10 10 0 6 5 10 10 10 6 0 10 -4 10 -10z m44 4 c25 -10 19 -22
-9 -16 -14 2 -25 8 -25 13 0 10 12 11 34 3z m-104 -174 c0 -5 -4 -10 -10 -10
-5 0 -10 5 -10 10 0 6 5 10 10 10 6 0 10 -4 10 -10z m80 0 c0 -5 -16 -10 -35
-10 -19 0 -35 5 -35 10 0 6 16 10 35 10 19 0 35 -4 35 -10z m-16 -62 c-3 -5
-12 -4 -20 3 -19 16 -18 18 6 12 11 -3 17 -9 14 -15z m-2194 -39 c0 -4 -7 -12
-16 -20 -13 -10 -17 -10 -24 1 -5 8 -7 17 -5 20 5 8 45 7 45 -1z m2207 -16 c3
-7 -4 -9 -16 -6 -12 3 -18 9 -15 15 7 11 26 6 31 -9z m-2000 -10 c-13 -12
-140 -16 -133 -4 4 6 36 11 73 11 37 0 63 -3 60 -7z m-61 -41 c-1 -13 -13 -18
-51 -22 -62 -6 -115 -1 -115 11 0 16 39 25 105 27 54 2 63 0 61 -16z m2054 4
c0 -11 -19 -15 -25 -6 -3 5 1 10 9 10 9 0 16 -2 16 -4z m-2052 -46 c15 0 22
-6 22 -19 0 -18 -7 -19 -77 -18 -76 2 -103 9 -103 27 0 9 81 19 115 14 11 -2
30 -4 43 -4z m2002 -16 c0 -2 -7 -4 -15 -4 -8 0 -15 4 -15 10 0 5 7 7 15 4 8
-4 15 -8 15 -10z m-1984 -46 c2 -3 2 -11 -1 -19 -4 -10 -22 -13 -66 -12 -64 2
-96 17 -70 32 14 9 128 8 137 -1z m302 -35 c-2 -10 -10 -18 -18 -18 -8 0 -16
8 -18 18 -2 12 3 17 18 17 15 0 20 -5 18 -17z m-335 -18 c22 -4 37 -12 37 -21
0 -23 -116 -19 -129 4 -8 15 -5 18 22 20 18 2 49 0 70 -3z m-163 -24 c0 -11 5
-23 10 -26 20 -12 9 -31 -17 -30 -18 0 -29 6 -31 18 -2 9 2 17 8 17 6 0 8 5 5
10 -7 12 2 30 16 30 5 0 9 -9 9 -19z m60 -30 c0 -17 -18 -21 -24 -6 -3 9 0 15
9 15 8 0 15 -4 15 -9z m658 -296 c-7 -8 -328 -8 -335 -1 -4 3 72 6 167 6 95 0
171 -2 168 -5z m-282 -58 c7 -7 -167 -18 -177 -12 -5 4 -9 11 -9 17 0 9 177 5
186 -5z m-122 -45 c2 -4 1 -14 -4 -21 -6 -11 -10 -9 -19 8 -10 17 -9 21 3 21
8 0 17 -4 20 -8z m50 -11 c3 -5 -3 -11 -14 -14 -13 -3 -20 0 -20 9 0 15 26 19
34 5z m-12 -63 c-11 -11 -32 -3 -32 12 0 4 9 6 21 3 13 -4 17 -9 11 -15z m63
-48 c17 -7 15 -9 -12 -9 -17 -1 -35 4 -38 9 -7 12 22 12 50 0z m10 -60 c3 -5
1 -10 -4 -10 -6 0 -11 5 -11 10 0 6 2 10 4 10 3 0 8 -4 11 -10z m-680 -99 c3
-5 1 -12 -4 -15 -12 -8 -41 3 -41 15 0 12 37 12 45 0z m-135 -5 c0 -3 -4 -8
-10 -11 -5 -3 -10 -1 -10 4 0 6 5 11 10 11 6 0 10 -2 10 -4z m65 -48 c16 -7
24 -17 20 -26 -3 -8 0 -21 6 -28 16 -19 2 -34 -30 -34 -25 0 -29 4 -35 41 -6
36 -2 59 9 59 2 0 16 -5 30 -12z m35 -128 c0 -5 -6 -10 -14 -10 -8 0 -18 5
-21 10 -3 6 3 10 14 10 12 0 21 -4 21 -10z m949 -286 c2 -2 -19 -4 -47 -4 -29
0 -52 4 -52 9 0 8 90 3 99 -5z m-209 -254 c0 -9 -36 -45 -88 -87 l-22 -18 24
-100 c14 -54 23 -101 21 -103 -7 -7 -25 9 -25 23 0 8 -8 20 -17 27 -10 7 -25
29 -34 48 -46 96 -60 133 -57 149 2 10 31 26 83 43 86 29 115 34 115 18z
m1800 -277 c0 -5 -5 -15 -10 -23 -8 -12 -10 -11 -10 8 0 12 5 22 10 22 6 0 10
-3 10 -7z"/>
<path d="M774 2741 c5 -8 56 -3 56 5 0 2 -14 4 -31 4 -16 0 -28 -4 -25 -9z"/>
<path d="M635 2630 c-3 -5 -1 -10 4 -10 6 0 11 5 11 10 0 6 -2 10 -4 10 -3 0
-8 -4 -11 -10z"/>
<path d="M1897 2605 c-15 -8 -47 -29 -70 -48 -142 -115 -245 -168 -389 -202
-65 -15 -118 -30 -118 -35 0 -14 94 -35 151 -34 41 1 65 7 87 23 17 11 34 21
39 21 5 0 7 -29 5 -64 -2 -35 1 -72 7 -82 9 -17 10 -15 11 11 0 17 5 46 10 66
9 32 16 38 52 47 50 13 58 9 58 -28 0 -40 13 -71 45 -102 30 -31 55 -37 105
-26 42 8 100 67 100 101 0 13 6 30 13 39 18 23 75 5 83 -27 9 -37 21 -30 16 9
-2 19 -12 42 -21 50 -26 24 -169 39 -301 32 l-115 -7 30 21 c22 14 46 20 89
20 l58 0 -23 19 -23 18 25 30 c20 25 109 100 174 148 19 13 17 14 -25 15 -25
0 -57 -7 -73 -15z m58 -390 c0 -27 -40 -33 -54 -7 -13 24 -4 34 29 30 17 -2
25 -9 25 -23z"/>
<path d="M413 2573 c9 -2 25 -2 35 0 9 3 1 5 -18 5 -19 0 -27 -2 -17 -5z"/>
<path d="M2698 2075 c-15 -39 -35 -97 -45 -130 -15 -49 -25 -65 -63 -92 -25
-18 -50 -37 -56 -42 -5 -4 -20 -13 -31 -19 -13 -7 -23 -26 -28 -49 -3 -21 -9
-48 -12 -60 -3 -14 -1 -23 6 -23 6 0 11 8 11 18 0 10 5 23 11 29 5 5 11 22 13
36 3 29 54 80 69 70 9 -5 4 -62 -9 -113 -7 -24 -7 -25 13 -7 20 17 21 17 48
-18 16 -22 33 -34 41 -31 9 3 14 -1 14 -12 1 -15 2 -15 12 2 6 11 10 60 8 120
-3 154 -3 156 4 163 3 3 16 -2 28 -13 21 -19 21 -19 13 1 -4 11 -11 69 -14
130 l-6 110 -27 -70z"/>
<path d="M820 1950 c0 -5 5 -10 11 -10 5 0 7 5 4 10 -3 6 -8 10 -11 10 -2 0
-4 -4 -4 -10z"/>
<path d="M570 1900 c0 -5 5 -10 11 -10 5 0 7 5 4 10 -3 6 -8 10 -11 10 -2 0
-4 -4 -4 -10z"/>
<path d="M600 1900 c0 -5 24 -10 53 -10 28 -1 79 -3 112 -5 69 -5 127 3 119
16 -7 13 -284 12 -284 -1z"/>
<path d="M635 1851 l-30 -7 38 -8 c45 -9 306 -11 314 -2 4 3 3 9 -1 13 -10 10
-283 14 -321 4z"/>
<path d="M2451 1624 c0 -11 3 -14 6 -6 3 7 2 16 -1 19 -3 4 -6 -2 -5 -13z"/>
<path d="M2437 1573 c-4 -3 -7 -11 -7 -17 0 -6 5 -5 12 2 6 6 9 14 7 17 -3 3
-9 2 -12 -2z"/>
<path d="M117 1513 c-15 -14 -5 -18 34 -15 28 3 37 7 28 13 -17 10 -53 12 -62
2z"/>
<path d="M340 1405 c0 -5 5 -17 10 -25 5 -8 10 -10 10 -5 0 6 -5 17 -10 25 -5
8 -10 11 -10 5z"/>
<path d="M2571 1214 c0 -11 3 -14 6 -6 3 7 2 16 -1 19 -3 4 -6 -2 -5 -13z"/>
<path d="M960 1170 c0 -5 5 -10 11 -10 5 0 7 5 4 10 -3 6 -8 10 -11 10 -2 0
-4 -4 -4 -10z"/>
<path d="M2537 1133 c-4 -3 -7 -13 -7 -22 1 -13 3 -13 11 2 11 19 8 33 -4 20z"/>
<path d="M0 1060 c0 -6 16 -10 37 -10 43 0 41 5 -4 13 -19 4 -33 2 -33 -3z"/>
<path d="M145 1050 c-3 -5 -1 -10 4 -10 6 0 11 5 11 10 0 6 -2 10 -4 10 -3 0
-8 -4 -11 -10z"/>
<path d="M180 1010 c-12 -8 -11 -10 8 -10 12 0 22 5 22 10 0 13 -11 13 -30 0z"/>
<path d="M5 940 c3 -5 12 -10 20 -10 8 0 17 5 20 10 4 6 -5 10 -20 10 -15 0
-24 -4 -20 -10z"/>
<path d="M0 891 c0 -5 6 -11 14 -14 21 -8 87 4 80 14 -7 12 -94 12 -94 0z"/>
<path d="M3010 780 c-6 -12 -9 -24 -7 -27 3 -2 11 5 17 17 6 12 9 24 7 27 -3
2 -11 -5 -17 -17z"/>
</g>
</svg>
